<svg width="181" height="116" viewBox="0 0 181 116" fill="none" xmlns="http://www.w3.org/2000/svg">
<path opacity="0.8" fill-rule="evenodd" clip-rule="evenodd" d="M36.342 21.7324C38.2033 15.6036 39.9354 11.7878 41.5356 10.2834C45.9669 6.11961 52.0939 8.38572 53.3965 8.71029C57.9724 9.85357 56.4845 2.3301 60.4105 0.800846C63.0269 -0.218171 65.1788 1.02746 66.8674 4.53773C68.3622 1.26284 70.6404 -0.237177 73.7018 0.0303697C78.2945 0.435345 79.9017 16.5919 86.2126 13.0554C92.5248 9.51731 100.263 8.70882 103.569 13.9662C104.283 15.1036 104.557 13.339 109.416 7.31407C114.276 1.28769 119.121 -1.36731 129.062 2.1415C133.582 3.73509 137.299 8.05531 140.217 15.1007C140.217 25.1564 147.319 31.1096 161.522 32.9562C182.828 35.7267 166.29 59.5851 140.217 66.572C114.143 73.5604 54.1123 77.3324 21.5362 59.6772C-0.18114 47.9095 4.75412 35.2603 36.3406 21.7324H36.342Z" fill="url(#paint0_linear_1_14650)"/>
<path d="M89.7651 110.593C111.461 110.593 129.049 106.353 129.049 101.122C129.049 95.8915 111.461 91.6512 89.7651 91.6512C68.0691 91.6512 50.481 95.8915 50.481 101.122C50.481 106.353 68.0691 110.593 89.7651 110.593Z" fill="url(#paint1_linear_1_14650)"/>
<path opacity="0.675" fill-rule="evenodd" clip-rule="evenodd" d="M156.088 112.939C126.551 120.656 25.7303 111.83 14.9993 107.799C9.77634 105.836 5.06847 102.144 0.87715 96.7229C0.408047 96.1168 0.113187 95.3847 0.0266418 94.6114C-0.0599036 93.8381 0.0653986 93.055 0.388069 92.3527C0.710739 91.6504 1.21761 91.0576 1.8501 90.6427C2.48259 90.2277 3.2149 90.0077 3.96239 90.0079H180.141C183.798 100.151 175.78 107.795 156.088 112.939Z" fill="url(#paint2_linear_1_14650)"/>
<path d="M119.91 75.7403L106.476 59.3775C106.158 58.9871 105.763 58.6727 105.318 58.4558C104.873 58.2388 104.389 58.1243 103.897 58.1202H75.01C74.019 58.1202 73.0772 58.5939 72.4315 59.3775L58.9971 75.7403V84.7228H119.91V75.7403Z" fill="url(#paint3_linear_1_14650)"/>
<path d="M116.103 85.0532L104.345 70.8016C104.061 70.4651 103.71 70.1963 103.317 70.0134C102.925 69.8305 102.499 69.7378 102.068 69.7416H76.8389C75.9728 69.7416 75.1264 70.1159 74.5622 70.8016L62.8037 85.0532V92.8808H116.103V85.0532Z" fill="url(#paint4_linear_1_14650)"/>
<path d="M119.91 95.0168C119.91 96.2638 119.371 97.3852 118.521 98.1367L118.348 98.2829C117.673 98.8153 116.85 99.1029 116.004 99.1016H62.9049C62.4248 99.1016 61.9658 99.011 61.5419 98.8443L61.3314 98.7566C60.6367 98.4347 60.0466 97.91 59.6323 97.246C59.218 96.582 58.9974 95.8072 58.9971 95.0153V75.8382H73.7762C75.4086 75.8382 76.7239 77.2373 76.7239 78.9347V78.9567C76.7239 80.6555 78.0545 82.0254 79.687 82.0254H99.2203C100.005 82.0246 100.757 81.7 101.313 81.1227C101.868 80.5453 102.181 79.7622 102.183 78.945C102.183 77.2403 103.5 75.8382 105.131 75.8382H119.912L119.91 95.0168Z" fill="url(#paint5_linear_1_14650)"/>
<defs>
<linearGradient id="paint0_linear_1_14650" x1="93.5983" y1="54.0211" x2="93.5983" y2="-12.7684" gradientUnits="userSpaceOnUse">
<stop stop-color="#DEDEDE" stop-opacity="0"/>
<stop offset="1" stop-color="#A9A9A9" stop-opacity="0.3"/>
</linearGradient>
<linearGradient id="paint1_linear_1_14650" x1="85.6717" y1="110.593" x2="85.6717" y2="91.6512" gradientUnits="userSpaceOnUse">
<stop stop-color="white" stop-opacity="0"/>
<stop offset="1" stop-color="#96A1C5" stop-opacity="0.373"/>
</linearGradient>
<linearGradient id="paint2_linear_1_14650" x1="90.5" y1="116" x2="90.5" y2="84.894" gradientUnits="userSpaceOnUse">
<stop stop-color="white" stop-opacity="0"/>
<stop offset="1" stop-color="#919191" stop-opacity="0.15"/>
</linearGradient>
<linearGradient id="paint3_linear_1_14650" x1="89.4536" y1="58.1202" x2="89.4536" y2="70.0781" gradientUnits="userSpaceOnUse">
<stop stop-color="#5389F5"/>
<stop offset="1" stop-color="#416FDC"/>
</linearGradient>
<linearGradient id="paint4_linear_1_14650" x1="96.5664" y1="92.8808" x2="96.5664" y2="68.5114" gradientUnits="userSpaceOnUse">
<stop stop-color="#DCE9FF"/>
<stop offset="1" stop-color="#B6CFFF"/>
</linearGradient>
<linearGradient id="paint5_linear_1_14650" x1="89.4543" y1="75.8382" x2="89.4543" y2="99.1016" gradientUnits="userSpaceOnUse">
<stop stop-color="#7CA5F7"/>
<stop offset="1" stop-color="#C4D6FC"/>
</linearGradient>
</defs>
</svg>
